<?xml version="1.0" standalone="no"?>
<!DOCTYPE svg PUBLIC "-//W3C//DTD SVG 20010904//EN"
 "http://www.w3.org/TR/2001/REC-SVG-20010904/DTD/svg10.dtd">
<svg version="1.0" xmlns="http://www.w3.org/2000/svg"
 width="640.000000pt" height="640.000000pt" viewBox="0 0 640.000000 640.000000"
 preserveAspectRatio="xMidYMid meet">
<metadata>
Created by potrace 1.16, written by Peter Selinger 2001-2019
</metadata>
<g transform="translate(0.000000,640.000000) scale(0.100000,-0.100000)"
fill="#000000" stroke="none">
<path d="M2834 6225 c-25 -17 -40 -51 -53 -125 -6 -30 -27 -131 -46 -225 -20
-93 -43 -204 -51 -245 -8 -41 -20 -80 -27 -87 -7 -6 -63 -26 -126 -43 -195
-54 -432 -155 -584 -249 -38 -23 -73 -38 -80 -34 -7 4 -118 76 -247 161 -288
190 -316 205 -355 197 -22 -4 -87 -62 -244 -218 -117 -116 -219 -226 -227
-244 -16 -38 -9 -63 40 -138 213 -322 308 -468 312 -480 3 -8 -10 -40 -29 -72
-105 -173 -192 -375 -252 -583 -20 -69 -40 -129 -45 -134 -5 -5 -82 -24 -172
-42 -176 -36 -252 -53 -395 -85 -142 -32 -133 -6 -133 -390 0 -315 0 -318 22
-344 20 -22 46 -30 188 -60 457 -95 481 -101 495 -117 6 -7 17 -38 25 -68 41
-175 170 -483 277 -662 l27 -46 -36 -54 c-112 -165 -313 -478 -325 -505 -11
-28 -11 -38 1 -65 18 -42 433 -454 464 -461 47 -11 53 -7 528 306 39 26 81 47
93 47 12 0 38 -11 59 -24 164 -104 500 -243 655 -271 76 -15 63 24 171 -503
35 -169 51 -208 89 -217 12 -3 165 -5 340 -3 l318 3 19 24 c10 14 23 48 28 75
6 28 29 139 52 246 22 107 46 222 52 255 15 85 28 102 96 120 251 69 456 153
633 261 31 19 66 34 78 34 11 0 123 -67 248 -150 296 -194 312 -204 349 -204
42 0 75 28 302 257 183 186 192 196 192 233 0 33 -18 66 -111 209 -205 313
-240 367 -246 381 -3 8 20 59 52 114 117 207 211 443 250 628 4 18 16 39 28
46 12 8 90 28 172 45 83 17 191 40 240 51 50 10 117 24 150 31 77 15 108 31
123 64 8 18 12 115 12 328 0 279 -2 304 -19 333 -22 36 -28 38 -281 90 -343
70 -389 81 -404 93 -8 7 -18 27 -21 44 -34 170 -138 430 -252 630 -66 116 -71
91 56 282 220 331 251 383 251 422 0 35 -12 49 -222 260 -239 240 -255 251
-316 219 -17 -9 -122 -76 -234 -149 -275 -180 -303 -197 -318 -197 -7 0 -45
18 -84 41 -173 100 -376 186 -551 233 -55 15 -111 32 -125 39 -29 15 -31 24
-85 287 -20 96 -42 204 -50 240 -8 36 -17 79 -20 97 -4 17 -17 43 -30 57 l-24
26 -323 0 c-268 0 -327 -3 -344 -15z m608 -1190 c360 -54 692 -209 961 -449
335 -299 542 -679 611 -1122 21 -134 21 -414 0 -543 -70 -436 -283 -833 -595
-1110 -648 -574 -1562 -639 -2284 -163 -185 122 -384 322 -509 510 -152 230
-243 457 -293 732 -27 148 -24 478 5 632 22 114 44 203 61 243 5 11 21 54 36
95 130 350 379 661 705 880 227 152 448 240 730 290 137 24 428 26 572 5z"/>
<path d="M3016 3874 c-130 -28 -229 -83 -335 -187 -223 -217 -271 -547 -123
-832 55 -106 182 -229 292 -282 114 -55 200 -75 324 -75 200 0 347 62 491 206
96 96 143 174 181 302 19 61 27 290 12 327 -7 17 -9 17 -40 0 -50 -27 -199
-25 -253 4 -55 30 -110 89 -137 148 -43 95 -23 231 45 303 25 27 22 31 -60 62
-109 41 -270 51 -397 24z"/>
</g>
</svg>
