<svg width="207" height="115" xmlns="http://www.w3.org/2000/svg"><g transform="translate(1 1)" stroke="#C2C8CC" stroke-width="2" fill="none" fill-rule="evenodd" stroke-linecap="round" stroke-linejoin="round"><path d="M50.47 37H31.1c-16.18 0-30 12.35-31 28.5A30.56 30.56 0 0030.74 98h6.74V88H31c-10.8 0-20.11-8.16-20.9-18.93A20.55 20.55 0 0130.74 47h26.73"></path><path d="M61.94 27.38a5.32 5.32 0 00-8.38 1.16 25.41 25.41 0 00-3.35 11.2M155.47 37h18.37c16.18 0 30 12.35 31 28.5A30.56 30.56 0 01174.21 98h-6.74V88H174c10.8 0 20.11-8.16 20.9-18.93A20.55 20.55 0 00174.21 47h-26.74"></path><path fill="#F8F9F9" fill-rule="nonzero" d="M64.47 79h78v34h-78zm78 0h27v23h-27zm-78 23h-27V79h27z"></path><path d="M38.47 85h131m-131 5h131"></path><path d="M116 79c0 7.18-5.82 13-13 13s-13-5.82-13-13" fill="#FFF" fill-rule="nonzero"></path><path d="M92.6 0h20.75a6.13 6.13 0 016.13 6.13V7.5A1.5 1.5 0 01118 9H88a1.5 1.5 0 01-1.5-1.5V6.13A6.13 6.13 0 0192.6 0h0z" fill="#F8F9F9" fill-rule="nonzero"></path><rect fill="#FFF" fill-rule="nonzero" x="75.47" y="6" width="56" height="75" rx="27.98"></rect><path d="M102.47 39v14h-2.89a3 3 0 00-3 3h0a3 3 0 003 3h4.89"></path><path d="M125.83 25H80.16l-5-14.5a91.77 91.77 0 0127.71-4.37 94.51 94.51 0 0128 4.38L125.83 25z" fill="#FFF" fill-rule="nonzero"></path><path d="M99.47 12h7m-4-2v9m3.93-2.56a3.63 3.63 0 01-7.25 0"></path><path d="M116.8 28.84c-.09 0-.18.16-.27.16H89.14c-.09 0-.18-.16-.27-.16a11.51 11.51 0 00-11.57 11.5c-.024 6.454 5.118 11.742 11.57 11.9 6.39 0 11.57-6.24 11.57-11.24h4.78c0 6.8 9.59 15.84 18.77 8.43a11.41 11.41 0 004.17-6.76 11.68 11.68 0 00-11.36-13.83h0z" fill="#F8F9F9" fill-rule="nonzero"></path><circle fill="#F8F9F9" fill-rule="nonzero" cx="129.97" cy="41.5" r="19.5"></circle><path d="M130.29 53.66c-6.837 0-12.38-5.543-12.38-12.38 0-6.837 5.543-12.38 12.38-12.38 6.837 0 12.38 5.543 12.38 12.38-.011 6.833-5.547 12.369-12.38 12.38h0zm0-20.27a7.89 7.89 0 017.88 7.88" fill="#FFF" fill-rule="nonzero"></path><circle fill="#F8F9F9" fill-rule="nonzero" cx="74.97" cy="41.5" r="19.5"></circle><path d="M75.39 53.66c-6.836 0-12.378-5.54-12.38-12.377-.002-6.836 5.537-12.38 12.373-12.383 6.836-.004 12.381 5.534 12.387 12.37-.006 6.837-5.543 12.379-12.38 12.39h0zm0-20.27a7.89 7.89 0 017.88 7.88" fill="#FFF" fill-rule="nonzero"></path><path d="M112.47 33h-19m10 59v14m40-78.62a5.32 5.32 0 018.38 1.16 25.41 25.41 0 013.35 11.2"></path><path d="M107.13 65.49a6.94 6.94 0 01-9.82 0" fill="#FFF" fill-rule="nonzero"></path></g></svg>